# Blender v2.90.0 OBJ File: 'Wetlands_Rough_Level.blend'
# www.blender.org
o Cattail_Tall_Mid.001_Plane.017
v 0.000001 14.411541 -1.144882
v -0.000000 0.006560 -1.122758
v 0.000000 10.347663 -1.031467
v 0.000000 3.017069 -1.106332
v 0.000000 3.017069 -1.206452
v 0.000000 10.350683 -1.278822
v 0.000001 13.441712 -1.232360
v 0.000001 13.442653 -1.078746
v 0.000000 10.619451 -1.501906
v 0.000001 13.262308 -1.430732
v 0.000000 10.602236 -0.788673
v 0.000001 13.266605 -0.864541
v 0.000001 12.732543 -1.047741
v 0.000000 11.944189 -1.018085
v 0.000000 11.156743 -1.013368
v 0.000000 11.157413 -1.299316
v 0.000000 11.944169 -1.294597
v 0.000001 12.732329 -1.262518
v 0.000000 11.181611 -1.613107
v 0.000000 11.938943 -1.641153
v 0.000001 12.704683 -1.571335
v 0.000001 12.705961 -0.716866
v 0.000000 11.939056 -0.661588
v 0.000000 11.177582 -0.689642
v 0.000000 4.472959 -1.156297
v 0.209671 11.157413 -1.299316
v 0.209671 10.350683 -1.278822
v 0.209671 13.441712 -1.232360
v 0.209671 14.411541 -1.144882
v 0.209671 11.156743 -1.013368
v 0.209670 3.017069 -1.106332
v 0.209670 0.006560 -1.122758
v 0.209670 3.017069 -1.206452
v 0.209671 11.944189 -1.018085
v 0.209670 4.472959 -1.156297
v 0.209671 10.347663 -1.031467
v 0.209671 11.944169 -1.294597
v 0.209671 12.732329 -1.262518
v 0.209671 13.442653 -1.078746
v 0.209671 11.938943 -1.641153
v 0.209671 12.704683 -1.571335
v 0.209671 13.262308 -1.430732
v 0.209671 12.732543 -1.047741
v 0.209671 12.705961 -0.716866
v 0.209671 10.619451 -1.501906
v 0.209671 11.177582 -0.689642
v 0.209671 10.602236 -0.788673
v 0.209671 13.266605 -0.864541
v 0.209671 11.181611 -1.613107
v 0.209671 11.939056 -0.661588
vt 0.778725 0.235665
vt 0.755170 0.234546
vt 0.773040 0.342657
vt 0.866051 0.776813
vt 0.797137 0.827324
vt 0.868599 0.830708
vt 0.856890 0.721238
vt 0.792147 0.773265
vt 0.754000 0.012718
vt 0.860021 0.935909
vt 0.808577 0.881750
vt 0.820325 0.934093
vt 0.792950 0.718003
vt 0.763787 0.916132
vt 0.722937 0.875876
vt 0.708582 0.770731
vt 0.910096 0.922770
vt 0.864083 0.884365
vt 0.915831 0.742401
vt 0.947263 0.782314
vt 0.943763 0.886251
vt 0.843457 0.981616
vt 0.731421 0.732487
vt 0.778725 0.235665
vt 0.773040 0.342657
vt 0.755170 0.234546
vt 0.797137 0.827324
vt 0.866051 0.776813
vt 0.868599 0.830708
vt 0.792147 0.773265
vt 0.856890 0.721238
vt 0.754000 0.012718
vt 0.808577 0.881750
vt 0.860021 0.935909
vt 0.820325 0.934093
vt 0.792950 0.718003
vt 0.763787 0.916132
vt 0.722937 0.875876
vt 0.708582 0.770731
vt 0.704979 0.822607
vt 0.864083 0.884365
vt 0.910096 0.922770
vt 0.915831 0.742401
vt 0.947263 0.782314
vt 0.943763 0.886251
vt 0.958139 0.834593
vt 0.843457 0.981616
vt 0.731421 0.732487
vt 0.958139 0.834593
vt 0.704979 0.822607
vn -0.7051 -0.0133 -0.7090
vn -0.7076 -0.0055 0.7065
vn -1.0000 0.0000 0.0000
vn -0.7908 -0.2106 -0.5747
vn -0.5370 -0.8435 0.0094
vn -0.7989 0.2684 -0.5381
vn -0.8080 0.2697 0.5238
vn -0.7997 -0.2260 0.5562
vn -0.6440 0.4129 0.6440
vn -0.6868 0.1192 0.7170
vn -0.6924 -0.0746 0.7176
vn -0.6473 0.3927 -0.6533
vn -0.6557 -0.3244 -0.6818
vn -0.6897 -0.0839 -0.7192
vn -0.6900 0.1217 -0.7135
vn -0.5374 0.8433 0.0092
vn -0.6470 -0.3426 0.6811
vn 0.7051 -0.0133 -0.7090
vn 1.0000 0.0000 0.0000
vn 0.7076 -0.0055 0.7065
vn 0.7908 -0.2106 -0.5747
vn 0.5370 -0.8435 0.0094
vn 0.7989 0.2684 -0.5381
vn 0.8080 0.2697 0.5238
vn 0.7997 -0.2260 0.5562
vn 0.6440 0.4129 0.6440
vn 0.6868 0.1192 0.7170
vn 0.6924 -0.0746 0.7176
vn 0.6951 0.0126 0.7188
vn 0.6473 0.3927 -0.6533
vn 0.6557 -0.3244 -0.6818
vn 0.6897 -0.0839 -0.7192
vn 0.6900 0.1217 -0.7135
vn 0.6930 0.0194 -0.7207
vn 0.5374 0.8433 0.0092
vn 0.6470 -0.3426 0.6811
vn -0.6930 0.0194 -0.7207
vn -0.6951 0.0126 0.7188
s 1
f 5/1/1 4/2/2 25/3/3
f 16/4/3 14/5/3 17/6/3
f 6/7/4 15/8/3 16/4/3
f 5/1/1 25/3/3 6/7/4
f 2/9/5 4/2/2 5/1/1
f 7/10/6 13/11/3 8/12/7
f 3/13/8 25/3/3 4/2/2
f 12/14/9 13/11/3 22/15/10
f 24/16/11 14/5/3 15/8/3
f 14/5/3 22/15/10 13/11/3
f 10/17/12 18/18/3 7/10/6
f 9/19/13 16/4/3 19/20/14
f 21/21/15 17/6/3 18/18/3
f 17/6/3 19/20/14 16/4/3
f 7/10/6 8/12/7 1/22/16
f 25/3/3 3/13/8 6/7/4
f 11/23/17 15/8/3 3/13/8
f 18/18/3 14/5/3 13/11/3
f 33/24/18 35/25/19 31/26/20
f 34/27/19 26/28/19 37/29/19
f 30/30/19 27/31/21 26/28/19
f 33/24/18 27/31/21 35/25/19
f 32/32/22 33/24/18 31/26/20
f 43/33/19 28/34/23 39/35/24
f 36/36/25 31/26/20 35/25/19
f 43/33/19 48/37/26 44/38/27
f 34/27/19 46/39/28 30/30/19
f 34/27/19 44/38/27 50/40/29
f 38/41/19 42/42/30 28/34/23
f 26/28/19 45/43/31 49/44/32
f 37/29/19 41/45/33 38/41/19
f 37/29/19 49/44/32 40/46/34
f 28/34/23 29/47/35 39/35/24
f 35/25/19 27/31/21 36/36/25
f 30/30/19 47/48/36 36/36/25
f 38/41/19 34/27/19 37/29/19
f 5/1/1 32/32/22 2/9/5
f 3/13/8 47/48/36 11/23/17
f 1/22/16 28/34/23 7/10/6
f 1/22/16 39/35/24 29/47/35
f 21/21/15 40/46/34 20/49/37
f 4/2/2 36/36/25 3/13/8
f 12/14/9 39/35/24 8/12/7
f 22/15/10 48/37/26 12/14/9
f 4/2/2 32/32/22 31/26/20
f 10/17/12 41/45/33 21/21/15
f 23/50/38 44/38/27 22/15/10
f 23/50/38 46/39/28 50/40/29
f 6/7/4 33/24/18 5/1/1
f 7/10/6 42/42/30 10/17/12
f 19/20/14 45/43/31 9/19/13
f 9/19/13 27/31/21 6/7/4
f 20/49/37 49/44/32 19/20/14
f 11/23/17 46/39/28 24/16/11
f 16/4/3 15/8/3 14/5/3
f 6/7/4 3/13/8 15/8/3
f 7/10/6 18/18/3 13/11/3
f 12/14/9 8/12/7 13/11/3
f 24/16/11 23/50/38 14/5/3
f 14/5/3 23/50/38 22/15/10
f 10/17/12 21/21/15 18/18/3
f 9/19/13 6/7/4 16/4/3
f 21/21/15 20/49/37 17/6/3
f 17/6/3 20/49/37 19/20/14
f 11/23/17 24/16/11 15/8/3
f 18/18/3 17/6/3 14/5/3
f 34/27/19 30/30/19 26/28/19
f 30/30/19 36/36/25 27/31/21
f 43/33/19 38/41/19 28/34/23
f 43/33/19 39/35/24 48/37/26
f 34/27/19 50/40/29 46/39/28
f 34/27/19 43/33/19 44/38/27
f 38/41/19 41/45/33 42/42/30
f 26/28/19 27/31/21 45/43/31
f 37/29/19 40/46/34 41/45/33
f 37/29/19 26/28/19 49/44/32
f 30/30/19 46/39/28 47/48/36
f 38/41/19 43/33/19 34/27/19
f 5/1/1 33/24/18 32/32/22
f 3/13/8 36/36/25 47/48/36
f 1/22/16 29/47/35 28/34/23
f 1/22/16 8/12/7 39/35/24
f 21/21/15 41/45/33 40/46/34
f 4/2/2 31/26/20 36/36/25
f 12/14/9 48/37/26 39/35/24
f 22/15/10 44/38/27 48/37/26
f 4/2/2 2/9/5 32/32/22
f 10/17/12 42/42/30 41/45/33
f 23/50/38 50/40/29 44/38/27
f 23/50/38 24/16/11 46/39/28
f 6/7/4 27/31/21 33/24/18
f 7/10/6 28/34/23 42/42/30
f 19/20/14 49/44/32 45/43/31
f 9/19/13 45/43/31 27/31/21
f 20/49/37 40/46/34 49/44/32
f 11/23/17 47/48/36 46/39/28
