# Blender v2.90.0 OBJ File: 'Wetlands_Rough_Level.blend'
# www.blender.org
o Grass_Tall.001_Plane.008
v 0.000001 18.566046 -9.896097
v -0.000000 0.000000 -7.000000
v 0.000001 18.566046 -10.127225
v -0.000000 0.000000 -7.231128
v 0.000001 19.752756 -10.011662
v -0.000000 0.000000 -7.115564
v 0.000000 16.460630 -9.795029
v 0.079274 13.160516 -9.320319
v 0.034242 9.850588 -8.413172
v -0.000000 6.584252 -7.633637
v -0.000000 3.292126 -7.268988
v -0.000000 3.292126 -7.500116
v -0.000000 6.584252 -7.864766
v 0.034242 9.850588 -8.644300
v 0.079274 13.160518 -9.551447
v 0.000000 16.460630 -10.026156
v -0.000000 3.292126 -7.384552
v -0.000000 6.584252 -7.749202
v 0.034242 9.850588 -8.528736
v 0.079274 13.160518 -9.435883
v 0.000000 16.460630 -9.910592
v 0.209671 19.752752 -10.011662
v 0.209671 18.566042 -9.896097
v 0.209670 3.292122 -7.268988
v 0.209670 -0.000004 -7.000000
v 0.209670 -0.000004 -7.115564
v 0.209670 -0.000004 -7.231128
v 0.209671 16.460627 -10.026156
v 0.209671 18.566042 -10.127225
v 0.209671 16.460627 -9.910592
v 0.209671 16.460627 -9.795029
v 0.288944 13.160513 -9.320319
v 0.243913 9.850584 -8.413172
v 0.209670 6.584248 -7.633637
v 0.209670 3.292123 -7.500116
v 0.209670 6.584249 -7.864766
v 0.243913 9.850585 -8.644300
v 0.288944 13.160514 -9.551447
v 0.209670 3.292123 -7.384552
v 0.209670 6.584249 -7.749202
v 0.243913 9.850585 -8.528736
v 0.288944 13.160514 -9.435883
vt 0.578631 0.152632
vt 0.394093 0.132252
vt 0.439826 0.090414
vt 0.624365 0.110794
vt 0.485559 0.048577
vt 0.722809 0.898764
vt 0.560229 0.926499
vt 0.605961 0.884663
vt 0.502093 0.789892
vt 0.547826 0.748054
vt 0.614520 0.496547
vt 0.660255 0.454703
vt 0.679583 0.249482
vt 0.725315 0.207646
vt 0.631344 0.982437
vt 0.765480 0.927925
vt 0.456362 0.831730
vt 0.568786 0.538391
vt 0.633851 0.291319
vt 0.532898 0.194469
vt 0.578631 0.152632
vt 0.394093 0.132252
vt 0.532898 0.194469
vt 0.624365 0.110794
vt 0.439826 0.090414
vt 0.722809 0.898764
vt 0.560229 0.926499
vt 0.765480 0.927925
vt 0.605961 0.884663
vt 0.502093 0.789892
vt 0.547826 0.748054
vt 0.614520 0.496547
vt 0.660255 0.454703
vt 0.679583 0.249482
vt 0.725315 0.207646
vt 0.631344 0.982437
vt 0.456362 0.831730
vt 0.514497 0.968336
vt 0.568786 0.538391
vt 0.633851 0.291319
vt 0.514497 0.968336
vt 0.485559 0.048577
vn -1.0000 0.0000 0.0000
vn -0.9997 -0.0240 0.0000
vn -0.9999 0.0136 0.0000
vn -0.9999 0.0105 0.0000
vn 1.0000 -0.0000 0.0000
vn 0.9997 0.0240 0.0000
vn 0.9999 -0.0136 -0.0000
vn 0.9999 -0.0105 0.0000
vn -0.0000 -1.0000 0.0000
vn 0.0000 0.2321 0.9727
vn -0.0000 -0.0479 -0.9988
vn 0.0000 0.1101 0.9939
vn 0.0000 0.0969 -0.9953
vn 0.0000 -0.0814 -0.9967
vn -0.0000 -0.1101 -0.9939
vn -0.0000 -0.2321 -0.9727
vn -0.0000 0.0479 0.9988
vn 0.0000 0.0969 0.9953
vn -0.0000 -0.2643 -0.9644
vn 0.0000 0.1424 0.9898
vn 0.0000 0.0814 0.9967
vn 0.0000 -0.1424 -0.9898
vn 0.0000 0.2643 0.9644
s off
f 17/1/1 4/2/1 6/3/1
f 11/4/1 6/3/1 2/5/1
f 1/6/1 21/7/1 7/8/1
f 7/8/2 20/9/2 8/10/2
f 8/10/3 19/11/3 9/12/3
f 9/12/4 18/13/4 10/14/4
f 10/14/1 17/1/1 11/4/1
f 3/15/1 21/7/1 5/16/1
f 21/7/2 15/17/2 20/9/2
f 20/9/3 14/18/3 19/11/3
f 19/11/4 13/19/4 18/13/4
f 18/13/1 12/20/1 17/1/1
f 39/21/5 27/22/5 35/23/5
f 24/24/5 26/25/5 39/21/5
f 23/26/5 30/27/5 22/28/5
f 31/29/6 42/30/6 30/27/6
f 32/31/7 41/32/7 42/30/7
f 33/33/8 40/34/8 41/32/8
f 34/35/5 39/21/5 40/34/5
f 30/27/5 29/36/5 22/28/5
f 30/27/6 38/37/6 28/38/6
f 42/30/7 37/39/7 38/37/7
f 41/32/8 36/40/8 37/39/8
f 40/34/5 35/23/5 36/40/5
f 4/2/9 26/25/9 6/3/9
f 9/12/10 34/35/10 33/33/10
f 16/41/11 29/36/11 28/38/11
f 11/4/12 34/35/12 10/14/12
f 3/15/13 22/28/13 29/36/13
f 4/2/14 35/23/14 27/22/14
f 6/3/9 25/42/9 2/5/9
f 12/20/15 36/40/15 35/23/15
f 14/18/16 36/40/16 13/19/16
f 7/8/17 23/26/17 1/6/17
f 1/6/18 22/28/18 5/16/18
f 15/17/19 37/39/19 14/18/19
f 8/10/20 31/29/20 7/8/20
f 2/5/21 24/24/21 11/4/21
f 15/17/22 28/38/22 38/37/22
f 8/10/23 33/33/23 32/31/23
f 17/1/1 12/20/1 4/2/1
f 11/4/1 17/1/1 6/3/1
f 1/6/1 5/16/1 21/7/1
f 7/8/2 21/7/2 20/9/2
f 8/10/3 20/9/3 19/11/3
f 9/12/4 19/11/4 18/13/4
f 10/14/1 18/13/1 17/1/1
f 3/15/1 16/41/1 21/7/1
f 21/7/2 16/41/2 15/17/2
f 20/9/3 15/17/3 14/18/3
f 19/11/4 14/18/4 13/19/4
f 18/13/1 13/19/1 12/20/1
f 39/21/5 26/25/5 27/22/5
f 24/24/5 25/42/5 26/25/5
f 23/26/5 31/29/5 30/27/5
f 31/29/6 32/31/6 42/30/6
f 32/31/7 33/33/7 41/32/7
f 33/33/8 34/35/8 40/34/8
f 34/35/5 24/24/5 39/21/5
f 30/27/5 28/38/5 29/36/5
f 30/27/6 42/30/6 38/37/6
f 42/30/7 41/32/7 37/39/7
f 41/32/8 40/34/8 36/40/8
f 40/34/5 39/21/5 35/23/5
f 4/2/9 27/22/9 26/25/9
f 9/12/10 10/14/10 34/35/10
f 16/41/11 3/15/11 29/36/11
f 11/4/12 24/24/12 34/35/12
f 3/15/13 5/16/13 22/28/13
f 4/2/14 12/20/14 35/23/14
f 6/3/9 26/25/9 25/42/9
f 12/20/15 13/19/15 36/40/15
f 14/18/16 37/39/16 36/40/16
f 7/8/17 31/29/17 23/26/17
f 1/6/18 23/26/18 22/28/18
f 15/17/19 38/37/19 37/39/19
f 8/10/20 32/31/20 31/29/20
f 2/5/21 25/42/21 24/24/21
f 15/17/22 16/41/22 28/38/22
f 8/10/23 9/12/23 33/33/23
