# Blender v2.90.0 OBJ File: 'bite mask.blend'
# www.blender.org
o Plane.001_Plane.011
v -0.141792 -0.409350 -0.423212
v -0.135553 -0.331161 -0.418742
v -0.092353 -0.415587 -0.325815
v -0.097490 -0.299473 -0.335254
v -0.135604 -0.532038 -0.419681
v -0.082973 -0.499826 -0.321693
v -0.133960 -0.230682 -0.403021
v -0.102904 -0.231009 -0.341787
v -0.123954 -0.198702 -0.387553
v -0.106333 -0.198889 -0.352476
v -0.113386 -0.180274 -0.370236
v -0.229984 -0.392983 -0.628900
v -0.229984 -0.248761 -0.624793
v -0.171306 -0.400973 -0.491219
v -0.173341 -0.187374 -0.507817
v -0.229984 -0.618908 -0.620458
v -0.166044 -0.556033 -0.483027
v -0.229984 -0.063064 -0.605430
v -0.187924 -0.061464 -0.518970
v -0.229984 -0.003586 -0.584493
v -0.196909 -0.002669 -0.534966
v -0.229984 0.030991 -0.560565
v -0.255954 -0.412921 0.725535
v -0.255954 -0.268697 0.720230
v -0.179238 -0.420844 0.550061
v -0.186209 -0.207254 0.571113
v -0.255954 -0.638842 0.714885
v -0.173750 -0.575901 0.539696
v -0.255954 -0.082991 0.695462
v -0.211082 -0.081349 0.585266
v -0.255954 -0.023502 0.668748
v -0.225667 -0.022561 0.605625
v -0.255954 0.011086 0.638234
v -0.145177 -0.421721 0.487645
v -0.140204 -0.337250 0.483573
v -0.066383 -0.426355 0.352755
v -0.077642 -0.301257 0.368946
v -0.137924 -0.554041 0.479450
v -0.057321 -0.517170 0.344781
v -0.133006 -0.228481 0.464540
v -0.083315 -0.227515 0.379831
v -0.123304 -0.193638 0.444008
v -0.097458 -0.193085 0.395484
v -0.116489 -0.173379 0.420552
v -0.045932 -0.383426 0.314171
v -0.047151 -0.274054 0.310325
v -0.003043 -0.389436 0.186995
v -0.011999 -0.227459 0.202250
v -0.043649 -0.554754 0.306453
v -0.001424 -0.507024 0.179484
v -0.065081 -0.133222 0.292372
v -0.029093 -0.131978 0.212507
v -0.063265 -0.088109 0.273011
v -0.040921 -0.087396 0.227262
v -0.055042 -0.061879 0.250896
v -0.000119 -0.331231 0.153047
v -0.001768 -0.236360 0.150115
v -0.000000 -0.336447 0.056182
v 0.000000 -0.195945 0.067798
v -0.000000 -0.479844 0.147173
v -0.000000 -0.438445 0.050463
v -0.007086 -0.114201 0.136438
v -0.000007 -0.113123 0.075608
v -0.005741 -0.075069 0.121691
v -0.000822 -0.074452 0.086845
v -0.003321 -0.052317 0.104846
v -0.077409 -0.392210 -0.295832
v -0.074505 -0.304171 -0.290611
v -0.025538 -0.399356 -0.179936
v -0.031187 -0.268593 -0.191313
v -0.073421 -0.530369 -0.291476
v -0.020675 -0.494219 -0.174927
v -0.065190 -0.191046 -0.272032
v -0.034499 -0.191490 -0.199173
v -0.064066 -0.155054 -0.253668
v -0.047035 -0.155308 -0.211932
v -0.060327 -0.134324 -0.233087
v -0.006910 -0.349504 -0.116950
v -0.007155 -0.279631 -0.113063
v -0.000000 -0.355008 -0.033476
v 0.000000 -0.251254 -0.041483
v -0.005853 -0.459137 -0.114012
v -0.000000 -0.430281 -0.030005
v -0.007263 -0.189831 -0.099516
v -0.000595 -0.190078 -0.047034
v -0.007188 -0.161242 -0.086236
v -0.002459 -0.161384 -0.056172
v -0.005628 -0.144762 -0.071381
v -0.141792 0.461889 0.536710
v -0.135553 0.377037 0.531893
v -0.092353 0.468636 0.432148
v -0.097490 0.342630 0.442255
v -0.135604 0.595032 0.532948
v -0.082973 0.560052 0.427743
v -0.133960 0.267992 0.514993
v -0.102904 0.268332 0.449253
v -0.123954 0.233283 0.498380
v -0.106333 0.233478 0.460722
v -0.113386 0.213281 0.479785
v -0.229984 0.444175 0.757531
v -0.229984 0.287663 0.753088
v -0.171306 0.452814 0.609720
v -0.173341 0.221017 0.627491
v -0.229984 0.689351 0.748519
v -0.166044 0.621086 0.600960
v -0.229984 0.086137 0.732258
v -0.187924 0.084380 0.639435
v -0.229984 0.021585 0.709767
v -0.196909 0.020578 0.656595
v -0.229984 -0.015944 0.684069
v -0.255954 0.465502 -0.696566
v -0.255954 0.308989 -0.690904
v -0.179238 0.474141 -0.508178
v -0.186209 0.242344 -0.530827
v -0.255954 0.710677 -0.685080
v -0.173750 0.642413 -0.497014
v -0.255954 0.107463 -0.664355
v -0.211082 0.105706 -0.546051
v -0.255954 0.042911 -0.635690
v -0.225667 0.041905 -0.567922
v -0.255954 0.005383 -0.602938
v -0.145177 0.475106 -0.441169
v -0.140204 0.383437 -0.436816
v -0.066383 0.480166 -0.296352
v -0.077642 0.344404 -0.313763
v -0.137924 0.618704 -0.432340
v -0.057321 0.578722 -0.287770
v -0.133006 0.265405 -0.416408
v -0.083315 0.264376 -0.325466
v -0.123304 0.227597 -0.394372
v -0.097458 0.227008 -0.342278
v -0.116489 0.205617 -0.369196
v -0.045932 0.433588 -0.254938
v -0.047151 0.314896 -0.250834
v -0.003043 0.440139 -0.118403
v -0.011999 0.264355 -0.134818
v -0.043649 0.619518 -0.246614
v -0.001424 0.567749 -0.110312
v -0.065081 0.162068 -0.231593
v -0.029093 0.160736 -0.145851
v -0.063265 0.113114 -0.210817
v -0.040921 0.112351 -0.161702
v -0.055042 0.084655 -0.187081
v -0.000119 0.376982 -0.081970
v -0.001768 0.274026 -0.078844
v -0.000000 0.382665 0.022024
v 0.000000 0.230186 0.009521
v -0.000000 0.538260 -0.075630
v -0.000000 0.493356 0.028187
v -0.007086 0.141461 -0.064189
v -0.000007 0.140305 0.001117
v -0.005741 0.098998 -0.048365
v -0.000822 0.098336 -0.010956
v -0.003321 0.074311 -0.030286
v -0.077409 0.443260 0.399953
v -0.074505 0.347718 0.394328
v -0.025538 0.450989 0.275531
v -0.031187 0.309085 0.287715
v -0.073421 0.593191 0.395309
v -0.020675 0.553934 0.270175
v -0.065190 0.224948 0.374357
v -0.034499 0.225413 0.296136
v -0.064066 0.185885 0.354632
v -0.047035 0.186151 0.309825
v -0.060327 0.163384 0.332532
v -0.006910 0.396874 0.207899
v -0.007155 0.321046 0.203709
v -0.000000 0.402828 0.118284
v 0.000000 0.290234 0.126856
v -0.005853 0.515849 0.204769
v -0.000000 0.484515 0.114574
v -0.007263 0.223590 0.189146
v -0.000595 0.223847 0.132801
v -0.007188 0.192562 0.174881
v -0.002459 0.192709 0.142606
v -0.005628 0.174674 0.158929
vt 0.394233 0.680930
vt 0.400341 0.429634
vt 0.553389 0.424348
vt 0.554859 0.683624
vt 0.554244 0.987408
vt 0.390389 0.990232
vt 0.414555 0.201757
vt 0.549265 0.199678
vt 0.445045 0.102919
vt 0.513496 0.104024
vt 0.478125 0.006109
vt 0.394233 0.680930
vt 0.400341 0.429634
vt 0.553389 0.424348
vt 0.554859 0.683624
vt 0.554244 0.987408
vt 0.393092 0.988949
vt 0.414555 0.201757
vt 0.549265 0.199678
vt 0.445045 0.102919
vt 0.513496 0.104024
vt 0.478125 0.006109
vt 0.394233 0.680930
vt 0.400341 0.429634
vt 0.553389 0.424348
vt 0.554859 0.683624
vt 0.554244 0.987408
vt 0.390389 0.990232
vt 0.414555 0.201757
vt 0.549265 0.199678
vt 0.445045 0.102919
vt 0.513496 0.104024
vt 0.478125 0.006109
vt 0.394233 0.680930
vt 0.400341 0.429634
vt 0.553389 0.424348
vt 0.554859 0.683624
vt 0.554244 0.987408
vt 0.393092 0.988949
vt 0.414555 0.201757
vt 0.549265 0.199678
vt 0.445045 0.102919
vt 0.513496 0.104024
vt 0.478125 0.006109
vt 0.394233 0.680930
vt 0.400341 0.429634
vt 0.553389 0.424348
vt 0.554859 0.683624
vt 0.554244 0.987408
vt 0.393092 0.988949
vt 0.414555 0.201757
vt 0.549265 0.199678
vt 0.445045 0.102919
vt 0.513496 0.104024
vt 0.478125 0.006109
vt 0.394233 0.680930
vt 0.400341 0.429634
vt 0.553389 0.424348
vt 0.554859 0.683624
vt 0.554244 0.987408
vt 0.393092 0.988949
vt 0.414555 0.201757
vt 0.549265 0.199678
vt 0.445045 0.102919
vt 0.513496 0.104024
vt 0.478125 0.006109
vt 0.394233 0.680930
vt 0.400341 0.429634
vt 0.553389 0.424348
vt 0.554859 0.683624
vt 0.554244 0.987408
vt 0.393092 0.988949
vt 0.414555 0.201757
vt 0.549265 0.199678
vt 0.445045 0.102919
vt 0.513496 0.104024
vt 0.478125 0.006109
vt 0.394233 0.680930
vt 0.400341 0.429634
vt 0.553389 0.424348
vt 0.554859 0.683624
vt 0.554244 0.987408
vt 0.393092 0.988949
vt 0.414555 0.201757
vt 0.549265 0.199678
vt 0.445045 0.102919
vt 0.513496 0.104024
vt 0.478125 0.006109
vt 0.394233 0.680930
vt 0.400341 0.429634
vt 0.553389 0.424348
vt 0.554859 0.683624
vt 0.554244 0.987408
vt 0.393092 0.988949
vt 0.414555 0.201757
vt 0.549265 0.199678
vt 0.445045 0.102919
vt 0.513496 0.104024
vt 0.478125 0.006109
vt 0.394233 0.680930
vt 0.400341 0.429634
vt 0.553389 0.424348
vt 0.554859 0.683624
vt 0.554244 0.987408
vt 0.390389 0.990232
vt 0.414555 0.201757
vt 0.549265 0.199678
vt 0.445045 0.102919
vt 0.513496 0.104024
vt 0.478125 0.006109
vt 0.394233 0.680930
vt 0.400341 0.429634
vt 0.553389 0.424348
vt 0.554859 0.683624
vt 0.554244 0.987408
vt 0.390389 0.990232
vt 0.414555 0.201757
vt 0.549265 0.199678
vt 0.445045 0.102919
vt 0.513496 0.104024
vt 0.478125 0.006109
vt 0.394233 0.680930
vt 0.400341 0.429634
vt 0.553389 0.424348
vt 0.554859 0.683624
vt 0.554244 0.987408
vt 0.393092 0.988949
vt 0.414555 0.201757
vt 0.549265 0.199678
vt 0.445045 0.102919
vt 0.513496 0.104024
vt 0.478125 0.006109
vt 0.394233 0.680930
vt 0.400341 0.429634
vt 0.553389 0.424348
vt 0.554859 0.683624
vt 0.554244 0.987408
vt 0.393092 0.988949
vt 0.414555 0.201757
vt 0.549265 0.199678
vt 0.445045 0.102919
vt 0.513496 0.104024
vt 0.478125 0.006109
vt 0.394233 0.680930
vt 0.400341 0.429634
vt 0.553389 0.424348
vt 0.554859 0.683624
vt 0.554244 0.987408
vt 0.393092 0.988949
vt 0.414555 0.201757
vt 0.549265 0.199678
vt 0.445045 0.102919
vt 0.513496 0.104024
vt 0.478125 0.006109
vt 0.394233 0.680930
vt 0.400341 0.429634
vt 0.553389 0.424348
vt 0.554859 0.683624
vt 0.554244 0.987408
vt 0.393092 0.988949
vt 0.414555 0.201757
vt 0.549265 0.199678
vt 0.445045 0.102919
vt 0.513496 0.104024
vt 0.478125 0.006109
vt 0.394233 0.680930
vt 0.400341 0.429634
vt 0.553389 0.424348
vt 0.554859 0.683624
vt 0.554244 0.987408
vt 0.390389 0.990232
vt 0.414555 0.201757
vt 0.549265 0.199678
vt 0.445045 0.102919
vt 0.513496 0.104024
vt 0.478125 0.006109
vn 0.8926 0.0156 -0.4505
vn 0.9002 0.0052 -0.4354
vn 0.8995 0.0184 -0.4365
vn 0.8915 0.0196 -0.4525
vn 0.8826 0.0491 -0.4676
vn 0.8962 0.0052 -0.4435
vn 0.8960 0.0012 -0.4440
vn 0.8907 -0.0662 -0.4498
vn 0.8906 -0.0670 -0.4497
vn 0.8898 -0.0898 -0.4475
vn 0.9127 -0.0072 -0.4086
vn 0.9055 0.0120 -0.4241
vn 0.9001 0.0291 -0.4346
vn 0.9128 -0.0070 -0.4084
vn 0.9137 -0.0051 -0.4062
vn 0.8833 0.0676 -0.4638
vn 0.8832 0.0678 -0.4640
vn 0.8439 0.1882 -0.5024
vn 0.8503 0.1673 -0.4989
vn 0.7722 0.3615 -0.5224
vn -0.9114 0.0048 -0.4114
vn -0.9094 -0.0307 -0.4148
vn -0.9077 -0.0491 -0.4168
vn -0.9114 0.0053 -0.4114
vn -0.9113 0.0096 -0.4115
vn -0.9057 -0.1055 -0.4105
vn -0.9057 -0.1056 -0.4105
vn -0.8918 -0.2069 -0.4022
vn -0.8948 -0.1952 -0.4014
vn -0.8391 -0.3599 -0.4079
vn -0.8649 -0.0114 -0.5018
vn -0.8702 -0.0039 -0.4927
vn -0.8701 -0.0067 -0.4927
vn -0.8642 -0.0132 -0.5030
vn -0.8591 -0.0258 -0.5111
vn -0.8691 -0.0418 -0.4928
vn -0.8691 -0.0432 -0.4928
vn -0.8652 -0.1282 -0.4847
vn -0.8654 -0.1240 -0.4855
vn -0.8550 -0.2428 -0.4582
vn -0.9481 -0.0096 -0.3176
vn -0.9372 -0.0671 -0.3421
vn -0.9293 -0.0956 -0.3568
vn -0.9482 -0.0080 -0.3176
vn -0.9484 0.0039 -0.3170
vn -0.9070 -0.1370 -0.3982
vn -0.9071 -0.1371 -0.3980
vn -0.8981 -0.1122 -0.4252
vn -0.8982 -0.1127 -0.4249
vn -0.8944 -0.0891 -0.4382
vn -1.0000 -0.0036 -0.0065
vn -0.9994 -0.0136 -0.0308
vn -0.9987 -0.0197 -0.0476
vn -1.0000 -0.0032 -0.0058
vn -1.0000 -0.0004 -0.0007
vn -0.9956 -0.0159 -0.0923
vn -0.9955 -0.0150 -0.0939
vn -0.9916 0.0014 -0.1293
vn -0.9916 0.0014 -0.1294
vn -0.9902 0.0018 -0.1397
vn 0.9128 0.0088 -0.4083
vn 0.9162 -0.0023 -0.4007
vn 0.9172 -0.0038 -0.3984
vn 0.9126 0.0099 -0.4087
vn 0.9109 0.0180 -0.4122
vn 0.9190 0.0642 -0.3890
vn 0.9189 0.0660 -0.3888
vn 0.9089 0.1816 -0.3752
vn 0.9090 0.1809 -0.3754
vn 0.9071 0.2027 -0.3689
vn 0.9965 0.0011 -0.0835
vn 0.9951 0.0031 -0.0981
vn 0.9946 0.0060 -0.1038
vn 0.9966 0.0013 -0.0827
vn 0.9971 0.0030 -0.0764
vn 0.9922 0.0227 -0.1225
vn 0.9921 0.0236 -0.1231
vn 0.9890 0.0424 -0.1419
vn 0.9889 0.0425 -0.1420
vn 0.9868 0.0463 -0.1550
vn 0.9049 -0.0147 0.4253
vn 0.9117 -0.0048 0.4107
vn 0.9111 -0.0174 0.4118
vn 0.9039 -0.0183 0.4273
vn 0.8958 -0.0460 0.4421
vn 0.9081 -0.0047 0.4187
vn 0.9079 -0.0010 0.4191
vn 0.9031 0.0619 0.4248
vn 0.9031 0.0626 0.4247
vn 0.9024 0.0838 0.4227
vn 0.9229 0.0066 0.3849
vn 0.9165 -0.0111 0.3997
vn 0.9116 -0.0275 0.4102
vn 0.9230 0.0064 0.3847
vn 0.9239 0.0047 0.3826
vn 0.8965 -0.0633 0.4385
vn 0.8963 -0.0636 0.4388
vn 0.8607 -0.1771 0.4774
vn 0.8658 -0.1599 0.4741
vn 0.7947 -0.3429 0.5008
vn -0.9218 -0.0045 0.3875
vn -0.9200 0.0284 0.3909
vn -0.9184 0.0461 0.3928
vn -0.9218 -0.0050 0.3876
vn -0.9217 -0.0090 0.3877
vn -0.9168 0.0983 0.3870
vn -0.9168 0.0985 0.3869
vn -0.9045 0.1934 0.3800
vn -0.9069 0.1839 0.3792
vn -0.8571 0.3387 0.3881
vn -0.8797 0.0105 0.4754
vn -0.8845 0.0035 0.4665
vn -0.8845 0.0063 0.4665
vn -0.8791 0.0123 0.4765
vn -0.8744 0.0240 0.4845
vn -0.8836 0.0393 0.4666
vn -0.8835 0.0407 0.4666
vn -0.8801 0.1204 0.4592
vn -0.8802 0.1169 0.4599
vn -0.8712 0.2279 0.4348
vn -0.9546 0.0088 0.2979
vn -0.9450 0.0621 0.3211
vn -0.9377 0.0893 0.3357
vn -0.9546 0.0074 0.2978
vn -0.9548 -0.0037 0.2972
vn -0.9180 0.1277 0.3753
vn -0.9099 0.1046 0.4013
vn -0.9100 0.1050 0.4011
vn -0.9066 0.0831 0.4137
vn -1.0000 0.0033 0.0060
vn -0.9995 0.0125 0.0287
vn -0.9988 0.0182 0.0444
vn -1.0000 0.0030 0.0054
vn -1.0000 0.0004 0.0006
vn -0.9962 0.0146 0.0861
vn -0.9960 0.0138 0.0876
vn -0.9927 -0.0013 0.1206
vn -0.9927 -0.0013 0.1207
vn -0.9915 -0.0017 0.1303
vn 0.9230 -0.0083 0.3846
vn 0.9261 0.0021 0.3773
vn 0.9270 0.0035 0.3750
vn 0.9228 -0.0092 0.3850
vn 0.9213 -0.0169 0.3883
vn 0.9286 -0.0600 0.3661
vn 0.9286 -0.0622 0.3659
vn 0.9199 -0.1695 0.3537
vn 0.9199 -0.1689 0.3539
vn 0.9182 -0.1891 0.3479
vn 0.9969 -0.0010 0.0779
vn 0.9958 -0.0029 0.0914
vn 0.9953 -0.0056 0.0968
vn 0.9970 -0.0012 0.0771
vn 0.9974 -0.0028 0.0712
vn 0.9932 -0.0210 0.1142
vn 0.9931 -0.0218 0.1148
vn 0.9904 -0.0392 0.1325
vn 0.9886 -0.0428 0.1446
s 1
f 1/1/1 2/2/2 4/3/3 3/4/4
f 1/1/1 3/4/4 6/5/5 5/6/5
f 4/3/3 2/2/2 7/7/6 8/8/7
f 8/8/7 7/7/6 9/9/8 10/10/9
f 10/10/9 9/9/8 11/11/10
f 12/12/11 13/13/12 15/14/13 14/15/14
f 12/12/11 14/15/14 17/16/15 16/17/15
f 15/14/13 13/13/12 18/18/16 19/19/17
f 19/19/17 18/18/16 20/20/18 21/21/19
f 21/21/19 20/20/18 22/22/20
f 23/23/21 24/24/22 26/25/23 25/26/24
f 23/23/21 25/26/24 28/27/25 27/28/25
f 26/25/23 24/24/22 29/29/26 30/30/27
f 30/30/27 29/29/26 31/31/28 32/32/29
f 32/32/29 31/31/28 33/33/30
f 34/34/31 35/35/32 37/36/33 36/37/34
f 34/34/31 36/37/34 39/38/35 38/39/35
f 37/36/33 35/35/32 40/40/36 41/41/37
f 41/41/37 40/40/36 42/42/38 43/43/39
f 43/43/39 42/42/38 44/44/40
f 45/45/41 46/46/42 48/47/43 47/48/44
f 45/45/41 47/48/44 50/49/45 49/50/45
f 48/47/43 46/46/42 51/51/46 52/52/47
f 52/52/47 51/51/46 53/53/48 54/54/49
f 54/54/49 53/53/48 55/55/50
f 56/56/51 57/57/52 59/58/53 58/59/54
f 56/56/51 58/59/54 61/60/55 60/61/55
f 59/58/53 57/57/52 62/62/56 63/63/57
f 63/63/57 62/62/56 64/64/58 65/65/59
f 65/65/59 64/64/58 66/66/60
f 67/67/61 68/68/62 70/69/63 69/70/64
f 67/67/61 69/70/64 72/71/65 71/72/65
f 70/69/63 68/68/62 73/73/66 74/74/67
f 74/74/67 73/73/66 75/75/68 76/76/69
f 76/76/69 75/75/68 77/77/70
f 78/78/71 79/79/72 81/80/73 80/81/74
f 78/78/71 80/81/74 83/82/75 82/83/75
f 81/80/73 79/79/72 84/84/76 85/85/77
f 85/85/77 84/84/76 86/86/78 87/87/79
f 87/87/79 86/86/78 88/88/80
f 89/89/81 90/90/82 92/91/83 91/92/84
f 89/89/81 91/92/84 94/93/85 93/94/85
f 92/91/83 90/90/82 95/95/86 96/96/87
f 96/96/87 95/95/86 97/97/88 98/98/89
f 98/98/89 97/97/88 99/99/90
f 100/100/91 101/101/92 103/102/93 102/103/94
f 100/100/91 102/103/94 105/104/95 104/105/95
f 103/102/93 101/101/92 106/106/96 107/107/97
f 107/107/97 106/106/96 108/108/98 109/109/99
f 109/109/99 108/108/98 110/110/100
f 111/111/101 112/112/102 114/113/103 113/114/104
f 111/111/101 113/114/104 116/115/105 115/116/105
f 114/113/103 112/112/102 117/117/106 118/118/107
f 118/118/107 117/117/106 119/119/108 120/120/109
f 120/120/109 119/119/108 121/121/110
f 122/122/111 123/123/112 125/124/113 124/125/114
f 122/122/111 124/125/114 127/126/115 126/127/115
f 125/124/113 123/123/112 128/128/116 129/129/117
f 129/129/117 128/128/116 130/130/118 131/131/119
f 131/131/119 130/130/118 132/132/120
f 133/133/121 134/134/122 136/135/123 135/136/124
f 133/133/121 135/136/124 138/137/125 137/138/125
f 136/135/123 134/134/122 139/139/126 140/140/126
f 140/140/126 139/139/126 141/141/127 142/142/128
f 142/142/128 141/141/127 143/143/129
f 144/144/130 145/145/131 147/146/132 146/147/133
f 144/144/130 146/147/133 149/148/134 148/149/134
f 147/146/132 145/145/131 150/150/135 151/151/136
f 151/151/136 150/150/135 152/152/137 153/153/138
f 153/153/138 152/152/137 154/154/139
f 155/155/140 156/156/141 158/157/142 157/158/143
f 155/155/140 157/158/143 160/159/144 159/160/144
f 158/157/142 156/156/141 161/161/145 162/162/146
f 162/162/146 161/161/145 163/163/147 164/164/148
f 164/164/148 163/163/147 165/165/149
f 166/166/150 167/167/151 169/168/152 168/169/153
f 166/166/150 168/169/153 171/170/154 170/171/154
f 169/168/152 167/167/151 172/172/155 173/173/156
f 173/173/156 172/172/155 174/174/157 175/175/157
f 175/175/157 174/174/157 176/176/158
