# Blender v2.90.0 OBJ File: 'Wetlands_Rough_Level.blend'
# www.blender.org
o Cattail_Tall.001_Plane.018
v 0.000001 20.704767 -2.144882
v -0.000000 0.006560 -2.122758
v 0.000000 16.078468 -2.008978
v 0.000000 3.017069 -2.106332
v 0.000000 3.017069 -2.206452
v 0.000000 16.081795 -2.302267
v 0.000001 19.611351 -2.247176
v 0.000001 19.612385 -2.065037
v 0.000000 16.377760 -2.566778
v 0.000001 19.288059 -2.482386
v 0.000000 16.358803 -1.721097
v 0.000001 19.292793 -1.811053
v 0.000001 18.704683 -2.028274
v 0.000000 17.836554 -1.993111
v 0.000000 16.969423 -1.987518
v 0.000000 16.970163 -2.326566
v 0.000000 17.836533 -2.320971
v 0.000001 18.704449 -2.282935
v 0.000000 16.996809 -2.698629
v 0.000000 17.830776 -2.731884
v 0.000001 18.674006 -2.649100
v 0.000001 18.675413 -1.635954
v 0.000000 17.830902 -1.570412
v 0.000000 16.992373 -1.603675
v 0.000000 4.472959 -2.156297
v 0.209671 16.970163 -2.326566
v 0.209671 16.081795 -2.302267
v 0.209671 19.611351 -2.247176
v 0.209671 20.704767 -2.144882
v 0.209671 16.969423 -1.987518
v 0.209670 3.017069 -2.106332
v 0.209670 0.006560 -2.122758
v 0.209670 3.017069 -2.206452
v 0.209671 17.836554 -1.993111
v 0.209670 4.472959 -2.156297
v 0.209671 16.078468 -2.008978
v 0.209671 17.836533 -2.320971
v 0.209671 18.704449 -2.282935
v 0.209671 19.612385 -2.065037
v 0.209671 17.830776 -2.731884
v 0.209671 18.674006 -2.649100
v 0.209671 19.288059 -2.482386
v 0.209671 18.704683 -2.028274
v 0.209671 18.675413 -1.635954
v 0.209671 16.377760 -2.566778
v 0.209671 16.992373 -1.603675
v 0.209671 16.358803 -1.721097
v 0.209671 19.292793 -1.811053
v 0.209671 16.996809 -2.698629
v 0.209671 17.830902 -1.570412
vt 0.778725 0.235665
vt 0.755170 0.234546
vt 0.773040 0.342657
vt 0.866051 0.776813
vt 0.797137 0.827324
vt 0.868599 0.830708
vt 0.856890 0.721238
vt 0.792147 0.773265
vt 0.754000 0.012718
vt 0.860021 0.935909
vt 0.808577 0.881750
vt 0.820325 0.934093
vt 0.792950 0.718003
vt 0.763787 0.916132
vt 0.722937 0.875876
vt 0.708582 0.770731
vt 0.910096 0.922770
vt 0.864083 0.884365
vt 0.915831 0.742401
vt 0.947263 0.782314
vt 0.943763 0.886251
vt 0.843457 0.981616
vt 0.731421 0.732487
vt 0.778725 0.235665
vt 0.773040 0.342657
vt 0.755170 0.234546
vt 0.797137 0.827324
vt 0.866051 0.776813
vt 0.868599 0.830708
vt 0.792147 0.773265
vt 0.856890 0.721238
vt 0.754000 0.012718
vt 0.808577 0.881750
vt 0.860021 0.935909
vt 0.820325 0.934093
vt 0.792950 0.718003
vt 0.763787 0.916132
vt 0.722937 0.875876
vt 0.708582 0.770731
vt 0.704979 0.822607
vt 0.864083 0.884365
vt 0.910096 0.922770
vt 0.915831 0.742401
vt 0.947263 0.782314
vt 0.943763 0.886251
vt 0.958139 0.834593
vt 0.843457 0.981616
vt 0.731421 0.732487
vt 0.958139 0.834593
vt 0.704979 0.822607
vn -0.7048 -0.0125 -0.7093
vn -0.7073 -0.0045 0.7068
vn -1.0000 0.0000 0.0000
vn -0.7959 -0.2180 -0.5648
vn -0.5370 -0.8435 0.0094
vn -0.7718 0.2246 -0.5948
vn -0.7798 0.2276 0.5831
vn -0.8049 -0.2327 0.5458
vn -0.6655 0.3406 0.6641
vn -0.6854 0.1281 0.7168
vn -0.6913 -0.0804 0.7181
vn -0.6685 0.3215 -0.6706
vn -0.6536 -0.3425 -0.6749
vn -0.6885 -0.0903 -0.7196
vn -0.6888 0.1308 -0.7130
vn -0.5375 0.8432 0.0085
vn -0.6449 -0.3603 0.6740
vn 0.7048 -0.0125 -0.7093
vn 1.0000 0.0000 0.0000
vn 0.7073 -0.0045 0.7068
vn 0.7959 -0.2180 -0.5648
vn 0.5370 -0.8435 0.0094
vn 0.7718 0.2246 -0.5948
vn 0.7798 0.2276 0.5831
vn 0.8049 -0.2327 0.5458
vn 0.6655 0.3406 0.6641
vn 0.6854 0.1281 0.7168
vn 0.6913 -0.0804 0.7181
vn 0.6941 0.0136 0.7197
vn 0.6685 0.3215 -0.6706
vn 0.6536 -0.3425 -0.6749
vn 0.6885 -0.0903 -0.7196
vn 0.6888 0.1308 -0.7130
vn 0.6919 0.0209 -0.7216
vn 0.5375 0.8432 0.0085
vn 0.6449 -0.3603 0.6740
vn -0.6919 0.0209 -0.7216
vn -0.6941 0.0136 0.7197
s 1
f 5/1/1 4/2/2 25/3/3
f 16/4/3 14/5/3 17/6/3
f 6/7/4 15/8/3 16/4/3
f 5/1/1 25/3/3 6/7/4
f 2/9/5 4/2/2 5/1/1
f 7/10/6 13/11/3 8/12/7
f 3/13/8 25/3/3 4/2/2
f 12/14/9 13/11/3 22/15/10
f 24/16/11 14/5/3 15/8/3
f 14/5/3 22/15/10 13/11/3
f 10/17/12 18/18/3 7/10/6
f 9/19/13 16/4/3 19/20/14
f 21/21/15 17/6/3 18/18/3
f 17/6/3 19/20/14 16/4/3
f 7/10/6 8/12/7 1/22/16
f 25/3/3 3/13/8 6/7/4
f 11/23/17 15/8/3 3/13/8
f 18/18/3 14/5/3 13/11/3
f 33/24/18 35/25/19 31/26/20
f 34/27/19 26/28/19 37/29/19
f 30/30/19 27/31/21 26/28/19
f 33/24/18 27/31/21 35/25/19
f 32/32/22 33/24/18 31/26/20
f 43/33/19 28/34/23 39/35/24
f 36/36/25 31/26/20 35/25/19
f 43/33/19 48/37/26 44/38/27
f 34/27/19 46/39/28 30/30/19
f 34/27/19 44/38/27 50/40/29
f 38/41/19 42/42/30 28/34/23
f 26/28/19 45/43/31 49/44/32
f 37/29/19 41/45/33 38/41/19
f 37/29/19 49/44/32 40/46/34
f 28/34/23 29/47/35 39/35/24
f 35/25/19 27/31/21 36/36/25
f 30/30/19 47/48/36 36/36/25
f 38/41/19 34/27/19 37/29/19
f 20/49/37 49/44/32 19/20/14
f 11/23/17 46/39/28 24/16/11
f 5/1/1 32/32/22 2/9/5
f 3/13/8 47/48/36 11/23/17
f 1/22/16 28/34/23 7/10/6
f 8/12/7 29/47/35 1/22/16
f 21/21/15 40/46/34 20/49/37
f 4/2/2 36/36/25 3/13/8
f 8/12/7 48/37/26 39/35/24
f 22/15/10 48/37/26 12/14/9
f 4/2/2 32/32/22 31/26/20
f 21/21/15 42/42/30 41/45/33
f 23/50/38 44/38/27 22/15/10
f 23/50/38 46/39/28 50/40/29
f 6/7/4 33/24/18 5/1/1
f 7/10/6 42/42/30 10/17/12
f 19/20/14 45/43/31 9/19/13
f 9/19/13 27/31/21 6/7/4
f 16/4/3 15/8/3 14/5/3
f 6/7/4 3/13/8 15/8/3
f 7/10/6 18/18/3 13/11/3
f 12/14/9 8/12/7 13/11/3
f 24/16/11 23/50/38 14/5/3
f 14/5/3 23/50/38 22/15/10
f 10/17/12 21/21/15 18/18/3
f 9/19/13 6/7/4 16/4/3
f 21/21/15 20/49/37 17/6/3
f 17/6/3 20/49/37 19/20/14
f 11/23/17 24/16/11 15/8/3
f 18/18/3 17/6/3 14/5/3
f 34/27/19 30/30/19 26/28/19
f 30/30/19 36/36/25 27/31/21
f 43/33/19 38/41/19 28/34/23
f 43/33/19 39/35/24 48/37/26
f 34/27/19 50/40/29 46/39/28
f 34/27/19 43/33/19 44/38/27
f 38/41/19 41/45/33 42/42/30
f 26/28/19 27/31/21 45/43/31
f 37/29/19 40/46/34 41/45/33
f 37/29/19 26/28/19 49/44/32
f 30/30/19 46/39/28 47/48/36
f 38/41/19 43/33/19 34/27/19
f 20/49/37 40/46/34 49/44/32
f 11/23/17 47/48/36 46/39/28
f 5/1/1 33/24/18 32/32/22
f 3/13/8 36/36/25 47/48/36
f 1/22/16 29/47/35 28/34/23
f 8/12/7 39/35/24 29/47/35
f 21/21/15 41/45/33 40/46/34
f 4/2/2 31/26/20 36/36/25
f 8/12/7 12/14/9 48/37/26
f 22/15/10 44/38/27 48/37/26
f 4/2/2 2/9/5 32/32/22
f 21/21/15 10/17/12 42/42/30
f 23/50/38 50/40/29 44/38/27
f 23/50/38 24/16/11 46/39/28
f 6/7/4 27/31/21 33/24/18
f 7/10/6 28/34/23 42/42/30
f 19/20/14 49/44/32 45/43/31
f 9/19/13 45/43/31 27/31/21
