# Blender v2.90.0 OBJ File: 'Wetlands_Rough_Level.blend'
# www.blender.org
o Cattail_Tall_Mid_Plane.007
v 0.000000 1.956124 -0.637747
v -0.000000 0.000890 -0.634744
v 0.000000 1.404521 -0.622353
v 0.000000 0.409516 -0.632514
v 0.000000 0.409516 -0.646104
v 0.000000 1.404931 -0.655927
v 0.000000 1.824486 -0.649621
v 0.000000 1.824614 -0.628770
v 0.000000 1.441412 -0.686207
v 0.000000 1.800135 -0.676546
v 0.000000 1.439075 -0.589398
v 0.000000 1.800719 -0.599695
v 0.000000 1.728229 -0.624562
v 0.000000 1.621223 -0.620537
v 0.000000 1.514340 -0.619896
v 0.000000 1.514431 -0.658709
v 0.000000 1.621220 -0.658068
v 0.000000 1.728199 -0.653714
v 0.000000 1.517716 -0.701301
v 0.000000 1.620511 -0.705108
v 0.000000 1.724447 -0.695631
v 0.000000 1.724620 -0.579651
v 0.000000 1.620526 -0.572148
v 0.000000 1.517169 -0.575956
v 0.000000 0.607129 -0.639296
vt 0.778725 0.235665
vt 0.773040 0.342657
vt 0.755170 0.234546
vt 0.797137 0.827324
vt 0.866051 0.776813
vt 0.868599 0.830708
vt 0.792147 0.773265
vt 0.856890 0.721238
vt 0.754000 0.012718
vt 0.808577 0.881750
vt 0.860021 0.935909
vt 0.820325 0.934093
vt 0.792950 0.718003
vt 0.763787 0.916132
vt 0.722937 0.875876
vt 0.708582 0.770731
vt 0.704979 0.822607
vt 0.864083 0.884365
vt 0.910096 0.922770
vt 0.915831 0.742401
vt 0.947263 0.782314
vt 0.943763 0.886251
vt 0.958139 0.834593
vt 0.843457 0.981616
vt 0.731421 0.732487
vn 1.0000 0.0000 0.0000
s 1
f 5/1/1 25/2/1 4/3/1
f 14/4/1 16/5/1 17/6/1
f 15/7/1 6/8/1 16/5/1
f 5/1/1 6/8/1 25/2/1
f 2/9/1 5/1/1 4/3/1
f 13/10/1 7/11/1 8/12/1
f 3/13/1 4/3/1 25/2/1
f 13/10/1 12/14/1 22/15/1
f 14/4/1 24/16/1 15/7/1
f 14/4/1 22/15/1 23/17/1
f 18/18/1 10/19/1 7/11/1
f 16/5/1 9/20/1 19/21/1
f 17/6/1 21/22/1 18/18/1
f 17/6/1 19/21/1 20/23/1
f 7/11/1 1/24/1 8/12/1
f 25/2/1 6/8/1 3/13/1
f 15/7/1 11/25/1 3/13/1
f 18/18/1 14/4/1 17/6/1
f 14/4/1 15/7/1 16/5/1
f 15/7/1 3/13/1 6/8/1
f 13/10/1 18/18/1 7/11/1
f 13/10/1 8/12/1 12/14/1
f 14/4/1 23/17/1 24/16/1
f 14/4/1 13/10/1 22/15/1
f 18/18/1 21/22/1 10/19/1
f 16/5/1 6/8/1 9/20/1
f 17/6/1 20/23/1 21/22/1
f 17/6/1 16/5/1 19/21/1
f 15/7/1 24/16/1 11/25/1
f 18/18/1 13/10/1 14/4/1
