# Blender v2.90.0 OBJ File: 'Wetlands_Rough_Level.blend'
# www.blender.org
o Grass_Tall_Plane.012
v 0.000000 2.520029 -1.648950
v -0.000000 0.000000 -1.255853
v 0.000000 2.520029 -1.680322
v -0.000000 0.000000 -1.287225
v 0.000000 2.681104 -1.664636
v -0.000000 0.000000 -1.271539
v 0.000000 2.234254 -1.635231
v 0.010760 1.786319 -1.570798
v 0.004648 1.337052 -1.447668
v -0.000000 0.893701 -1.341859
v -0.000000 0.446851 -1.292364
v -0.000000 0.446851 -1.323736
v -0.000000 0.893701 -1.373231
v 0.004648 1.337052 -1.479040
v 0.010760 1.786319 -1.602170
v 0.000000 2.234254 -1.666603
v -0.000000 0.446851 -1.308050
v -0.000000 0.893701 -1.357545
v 0.004648 1.337052 -1.463354
v 0.010760 1.786319 -1.586484
v 0.000000 2.234254 -1.650917
vt 0.578631 0.152632
vt 0.394093 0.132252
vt 0.532898 0.194469
vt 0.624365 0.110794
vt 0.439826 0.090414
vt 0.722809 0.898764
vt 0.560229 0.926499
vt 0.765480 0.927925
vt 0.605961 0.884663
vt 0.502093 0.789892
vt 0.547826 0.748054
vt 0.614520 0.496547
vt 0.660255 0.454703
vt 0.679583 0.249482
vt 0.725315 0.207646
vt 0.514497 0.968336
vt 0.631344 0.982437
vt 0.456362 0.831730
vt 0.568786 0.538391
vt 0.633851 0.291319
vt 0.485559 0.048577
vn 1.0000 -0.0000 0.0000
vn 0.9997 0.0240 0.0000
vn 0.9999 -0.0136 -0.0000
vn 0.9999 -0.0105 0.0000
s off
f 17/1/1 4/2/1 12/3/1
f 11/4/1 6/5/1 17/1/1
f 1/6/1 21/7/1 5/8/1
f 7/9/2 20/10/2 21/7/2
f 8/11/3 19/12/3 20/10/3
f 9/13/4 18/14/4 19/12/4
f 10/15/1 17/1/1 18/14/1
f 5/8/1 16/16/1 3/17/1
f 21/7/2 15/18/2 16/16/2
f 20/10/3 14/19/3 15/18/3
f 19/12/4 13/20/4 14/19/4
f 18/14/1 12/3/1 13/20/1
f 17/1/1 6/5/1 4/2/1
f 11/4/1 2/21/1 6/5/1
f 1/6/1 7/9/1 21/7/1
f 7/9/2 8/11/2 20/10/2
f 8/11/3 9/13/3 19/12/3
f 9/13/4 10/15/4 18/14/4
f 10/15/1 11/4/1 17/1/1
f 5/8/1 21/7/1 16/16/1
f 21/7/2 20/10/2 15/18/2
f 20/10/3 19/12/3 14/19/3
f 19/12/4 18/14/4 13/20/4
f 18/14/1 17/1/1 12/3/1
